<svg xmlns="http://www.w3.org/2000/svg" version="1.1" xmlns:xlink="http://www.w3.org/1999/xlink" width="512" height="512" x="0" y="0" viewBox="0 0 24 24" style="enable-background:new 0 0 512 512" xml:space="preserve"><g><linearGradient id="a" x1="1" x2="22.71" y1="11.85" y2="11.85" gradientUnits="userSpaceOnUse"><stop offset="0" stop-color="#f2551c"></stop><stop offset="1" stop-color="#ffd432"></stop></linearGradient><path fill="url(#a)" d="M16 10h-2a4 4 0 0 0-4-4V4a6 6 0 0 1 6 6zm5.29 12.71L15.61 17A8.91 8.91 0 0 1 10 19a9 9 0 1 1 9-9 8.91 8.91 0 0 1-2 5.61l5.69 5.68zM17 10a7 7 0 1 0-7 7 7 7 0 0 0 7-7z" data-name="25 Search, Find, Magnifier" opacity="1" data-original="url(#a)"></path></g></svg>