<svg fill="none" height="512" viewBox="0 0 24 24" width="512" xmlns="http://www.w3.org/2000/svg" xmlns:xlink="http://www.w3.org/1999/xlink"><linearGradient id="paint0_linear_607_10058" gradientUnits="userSpaceOnUse" x1="12" x2="12" y1="2" y2="21"><stop offset="0" stop-color="#0d84f1"/><stop offset="1" stop-color="#875be3"/></linearGradient><path clip-rule="evenodd" d="m15.2951 4c.3893 0 .7049.3156.7049.7049v.2951c0 .55228.4477 1 1 1s1-.44772 1-1v-.2951c0-1.49387-1.211-2.7049-2.7049-2.7049-1.2114 0-2.2781.7981-2.6199 1.96031l-1.0826 3.68077c-.0626.21279-.2579.35892-.4797.35892h-.6129c-.55228 0-1 .44772-1 1s.44772 1 1 1c.1992 0 .3425.1915.2863.3826l-2.18829 7.4402c-.20528.6979-.84584 1.1772-1.57336 1.1772h-.02465c-.55228 0-1 .4477-1 1s.44771 1 1 1h.02465c1.61474 0 3.03645-1.0638 3.49205-2.6129l2.3613-8.0282c.0626-.2128.2578-.3589.4797-.3589h.6423c.5523 0 1-.44772 1-1s-.4477-1-1-1c-.2139 0-.3678-.20561-.3074-.41083l.9013-3.06453c.0915-.31104.377-.52464.7012-.52464z" fill="url(#paint0_linear_607_10058)" fill-rule="evenodd"/></svg>